<?xml version="1.0" standalone="no"?>
<!DOCTYPE svg PUBLIC "-//W3C//DTD SVG 20010904//EN"
 "http://www.w3.org/TR/2001/REC-SVG-20010904/DTD/svg10.dtd">
<svg version="1.0" xmlns="http://www.w3.org/2000/svg"
 width="512.000000pt" height="512.000000pt" viewBox="0 0 512.000000 512.000000"
 preserveAspectRatio="xMidYMid meet">
<metadata>
Created by potrace 1.11, written by Peter Selinger 2001-2013
</metadata>
<g transform="translate(0.000000,512.000000) scale(0.100000,-0.100000)"
fill="#000000" stroke="none">
<path d="M2674 4152 c-6 -4 -19 -40 -28 -80 -25 -109 -42 -145 -79 -164 -17
-9 -84 -41 -147 -71 -166 -79 -159 -70 -125 -151 l28 -66 17 28 c25 41 105
104 223 177 l106 64 38 -20 c91 -46 166 -78 174 -73 11 6 42 65 37 69 -2 2
-35 12 -75 24 -39 12 -80 29 -92 39 -21 17 -50 112 -52 167 -1 41 -12 66 -25
57z"/>
<path d="M2022 3990 c-91 -109 -216 -318 -267 -445 -66 -166 -71 -392 -12
-585 l14 -45 12 45 c24 90 54 176 79 225 36 72 81 135 96 135 22 0 185 -111
265 -180 40 -34 73 -60 75 -59 54 74 99 129 105 129 8 0 35 -56 46 -98 6 -20
12 -15 59 50 29 40 58 73 66 73 23 0 147 -190 216 -330 100 -204 150 -379 161
-559 5 -66 8 -84 16 -70 6 11 7 75 3 172 -6 134 -10 163 -32 216 -16 38 -27
88 -30 131 -5 67 -4 69 11 43 8 -15 28 -66 44 -115 98 -293 93 -604 -15 -938
-24 -73 -134 -319 -140 -312 -1 1 4 29 12 62 23 100 16 104 -31 21 -43 -75
-112 -176 -121 -176 -2 0 -1 47 3 104 4 73 2 105 -6 110 -6 4 -11 19 -11 33 0
50 -92 173 -151 199 -105 49 -235 92 -244 82 -9 -9 32 -123 81 -227 53 -112
132 -234 207 -316 l55 -60 29 28 30 27 -2 -52 c-2 -29 -10 -73 -20 -98 -13
-35 -16 -66 -13 -136 3 -50 8 -96 12 -102 9 -15 46 -16 46 -1 0 8 4 8 14 0 11
-9 22 -8 50 6 44 21 45 36 4 75 -26 24 -31 37 -31 74 0 40 -2 44 -26 45 l-26
1 26 11 c20 7 29 21 36 54 l11 45 -27 -6 c-25 -6 -25 -5 9 24 33 29 35 30 38
10 4 -25 4 -25 168 42 291 118 579 317 752 517 208 242 308 488 337 838 l7 82
-39 -5 c-147 -22 -361 -94 -489 -166 l-71 -40 -6 -117 c-11 -245 -106 -489
-294 -754 -59 -83 -339 -374 -350 -363 -3 3 0 26 7 51 10 35 28 60 73 103 182
174 356 445 416 647 52 177 67 433 36 620 -29 179 -120 433 -152 421 -7 -3
-61 -42 -120 -88 -87 -67 -105 -78 -99 -58 23 82 35 134 33 136 -1 2 -28 -20
-60 -48 -32 -28 -59 -49 -61 -47 -1 2 -33 44 -70 92 l-69 89 7 56 c9 75 86
308 97 291 8 -13 1 -70 -10 -79 -3 -3 -14 -22 -23 -43 -34 -72 -18 -131 44
-163 16 -8 31 -14 32 -12 1 2 30 37 63 78 50 62 66 92 93 173 17 54 29 104 26
112 -6 17 -123 105 -140 105 -6 0 -29 -35 -50 -77 l-39 -78 -16 53 c-19 63
-44 81 -113 82 -62 0 -91 -33 -107 -123 -15 -89 -14 -108 8 -114 13 -3 23 -20
30 -48 22 -89 12 -139 -34 -161 l-32 -15 -64 66 c-35 37 -70 76 -77 88 -9 15
-12 16 -8 4 3 -10 14 -56 23 -103 17 -83 14 -112 -13 -121 -16 -5 -133 236
-158 327 -41 148 -41 145 -7 170 31 21 31 21 14 53 -40 78 -164 247 -182 247
-3 0 -21 -18 -39 -40z m885 -1032 c-15 -85 -16 -85 -42 -42 l-24 39 32 27 c18
15 35 28 38 28 3 0 1 -24 -4 -52z"/>
<path d="M3022 3996 c-36 -42 -95 -126 -90 -130 1 -2 47 -23 101 -46 125 -54
127 -56 115 -117 -29 -146 -101 -350 -169 -475 -11 -21 -17 -38 -14 -38 3 0
32 20 65 44 34 24 81 54 106 67 l45 24 25 -30 c39 -48 101 -182 129 -279 14
-50 27 -91 29 -94 2 -2 14 39 27 90 29 122 33 339 6 438 -21 80 -117 277 -187
385 -56 86 -141 195 -151 195 -4 0 -20 -15 -37 -34z"/>
<path d="M890 3665 c0 -230 58 -518 142 -706 l30 -66 72 -7 c139 -13 348 -82
495 -163 52 -29 63 -32 57 -17 -65 160 -86 267 -86 444 l0 138 -93 88 c-115
110 -249 206 -387 278 -95 49 -203 96 -222 96 -5 0 -8 -38 -8 -85z"/>
<path d="M4130 3716 c-223 -98 -369 -195 -532 -355 l-77 -75 0 -141 c0 -170
-22 -280 -86 -437 -5 -13 16 -6 77 27 148 79 399 155 511 155 33 0 36 3 64 68
41 91 78 211 102 329 38 187 55 463 29 463 -7 0 -47 -15 -88 -34z"/>
<path d="M1927 3113 c-77 -166 -117 -370 -117 -602 0 -153 14 -245 57 -371 50
-147 153 -326 263 -460 56 -68 209 -220 222 -220 3 0 -24 64 -62 143 -67 139
-138 323 -128 333 3 2 18 0 33 -6 15 -6 30 -9 32 -6 2 2 -3 41 -11 86 -9 45
-19 134 -23 196 l-6 114 -44 -36 -43 -35 0 58 c0 189 70 464 155 609 l24 41
-144 112 c-79 61 -150 113 -157 116 -10 4 -26 -18 -51 -72z m178 -930 c7 -58
30 -182 41 -216 5 -16 1 -17 -33 -11 -21 4 -59 17 -84 30 -87 43 -86 111 3
201 29 29 55 53 59 53 4 0 10 -26 14 -57z"/>
<path d="M416 3104 c-19 -145 3 -349 56 -509 37 -111 116 -269 174 -352 83
-116 244 -237 449 -338 117 -57 292 -122 302 -112 3 4 -12 28 -34 54 -66 79
-151 209 -199 305 -88 176 -154 417 -154 565 0 79 -13 106 -87 173 -106 98
-262 190 -397 235 -101 34 -102 33 -110 -21z"/>
<path d="M4572 3115 c-164 -59 -284 -135 -399 -252 l-63 -63 0 -86 c0 -253
-128 -575 -335 -844 -31 -39 -54 -74 -51 -77 10 -10 188 57 301 112 240 117
418 265 504 418 132 235 201 531 177 760 -9 80 -5 79 -134 32z"/>
<path d="M2433 3068 c-24 -30 -94 -169 -128 -257 -48 -121 -93 -300 -101 -403
l-7 -81 59 40 c32 22 82 52 111 68 29 15 62 38 74 51 26 27 49 86 49 125 0 14
7 47 16 73 14 41 15 60 5 134 -14 113 -63 269 -78 250z"/>
<path d="M1115 2706 c32 -387 155 -659 414 -916 207 -205 523 -396 815 -491
49 -16 91 -28 92 -26 2 2 -24 26 -59 54 -416 334 -667 769 -667 1158 l0 91
-72 41 c-131 74 -319 138 -471 161 l-58 9 6 -81z"/>
<path d="M2565 2287 c-33 -19 -98 -57 -145 -87 -47 -29 -102 -64 -122 -77 -36
-22 -49 -43 -28 -43 5 0 49 -24 97 -54 49 -30 100 -58 116 -61 15 -4 27 -11
27 -15 0 -15 81 -40 129 -40 l49 0 7 78 c10 110 8 257 -4 281 -15 27 -40 51
-54 51 -7 0 -39 -15 -72 -33z"/>
<path d="M2937 2213 c-7 -13 -65 -221 -86 -313 -24 -102 -38 -253 -22 -230 17
23 78 218 91 290 11 58 29 260 23 260 -1 0 -4 -3 -6 -7z"/>
<path d="M640 1744 c-306 -26 -630 -88 -623 -119 3 -14 216 -137 386 -222 344
-172 649 -268 967 -304 133 -15 534 -6 685 15 246 35 405 59 402 62 -2 2 -47
15 -100 29 -253 65 -490 190 -709 372 l-97 81 -108 26 c-59 14 -160 32 -223
41 -110 15 -485 27 -580 19z"/>
<path d="M4060 1744 c-121 -12 -286 -37 -383 -60 -107 -26 -108 -26 -195 -101
-203 -175 -469 -314 -730 -383 -94 -24 -38 -42 253 -79 398 -51 659 -48 949
10 162 32 414 112 565 179 223 98 597 302 586 320 -8 13 -244 66 -400 90 -136
21 -524 35 -645 24z"/>
</g>
</svg>
